<svg width="86" height="15" viewBox="0 0 86 15" fill="none" xmlns="http://www.w3.org/2000/svg">
<path d="M5.39648 5.79102C6.63867 5.79102 7.62598 6.13965 8.3584 6.83691C9.09668 7.53418 9.46582 8.48926 9.46582 9.70215C9.46582 11.1377 9.02344 12.2422 8.13867 13.0156C7.25391 13.7891 5.98828 14.1758 4.3418 14.1758C2.91211 14.1758 1.75781 13.9443 0.878906 13.4814V11.1348C1.3418 11.3809 1.88086 11.583 2.49609 11.7412C3.11133 11.8936 3.69434 11.9697 4.24512 11.9697C5.90332 11.9697 6.73242 11.29 6.73242 9.93066C6.73242 8.63574 5.87402 7.98828 4.15723 7.98828C3.84668 7.98828 3.50391 8.02051 3.12891 8.08496C2.75391 8.14355 2.44922 8.20801 2.21484 8.27832L1.13379 7.69824L1.61719 1.15039H8.58691V3.45312H3.99902L3.76172 5.97559L4.06934 5.91406C4.42676 5.83203 4.86914 5.79102 5.39648 5.79102ZM20.2764 11.3369H18.7295V14H16.0752V11.3369H10.5908V9.44727L16.2246 1.15039H18.7295V9.22754H20.2764V11.3369ZM16.0752 9.22754V7.04785C16.0752 6.68457 16.0898 6.15723 16.1191 5.46582C16.1484 4.77441 16.1719 4.37305 16.1895 4.26172H16.1191C15.9023 4.74219 15.6416 5.21094 15.3369 5.66797L12.9814 9.22754H16.0752ZM21.1025 10.2734V8.07617H25.8223V10.2734H21.1025ZM31.7637 5.79102C33.0059 5.79102 33.9932 6.13965 34.7256 6.83691C35.4639 7.53418 35.833 8.48926 35.833 9.70215C35.833 11.1377 35.3906 12.2422 34.5059 13.0156C33.6211 13.7891 32.3555 14.1758 30.709 14.1758C29.2793 14.1758 28.125 13.9443 27.2461 13.4814V11.1348C27.709 11.3809 28.248 11.583 28.8633 11.7412C29.4785 11.8936 30.0615 11.9697 30.6123 11.9697C32.2705 11.9697 33.0996 11.29 33.0996 9.93066C33.0996 8.63574 32.2412 7.98828 30.5244 7.98828C30.2139 7.98828 29.8711 8.02051 29.4961 8.08496C29.1211 8.14355 28.8164 8.20801 28.582 8.27832L27.501 7.69824L27.9844 1.15039H34.9541V3.45312H30.3662L30.1289 5.97559L30.4365 5.91406C30.7939 5.83203 31.2363 5.79102 31.7637 5.79102ZM41.8008 0.983398C43.0312 0.983398 44.0215 1.26465 44.7715 1.82715C45.5273 2.38379 45.9053 3.13672 45.9053 4.08594C45.9053 4.74219 45.7236 5.32812 45.3604 5.84375C44.9971 6.35352 44.4111 6.81055 43.6025 7.21484C44.5635 7.73047 45.252 8.26953 45.668 8.83203C46.0898 9.38867 46.3008 10.001 46.3008 10.6689C46.3008 11.7236 45.8877 12.5732 45.0615 13.2178C44.2354 13.8564 43.1484 14.1758 41.8008 14.1758C40.3945 14.1758 39.29 13.877 38.4873 13.2793C37.6846 12.6816 37.2832 11.835 37.2832 10.7393C37.2832 10.0068 37.4766 9.35645 37.8633 8.78809C38.2559 8.21973 38.8828 7.71875 39.7441 7.28516C39.0117 6.82227 38.4844 6.32715 38.1621 5.7998C37.8398 5.27246 37.6787 4.69531 37.6787 4.06836C37.6787 3.14844 38.0596 2.4043 38.8213 1.83594C39.583 1.26758 40.5762 0.983398 41.8008 0.983398ZM39.7969 10.5811C39.7969 11.085 39.9727 11.4775 40.3242 11.7588C40.6758 12.04 41.1562 12.1807 41.7656 12.1807C42.4395 12.1807 42.9434 12.0371 43.2773 11.75C43.6113 11.457 43.7783 11.0732 43.7783 10.5986C43.7783 10.2061 43.6113 9.83984 43.2773 9.5C42.9492 9.1543 42.4131 8.78809 41.6689 8.40137C40.4209 8.97559 39.7969 9.70215 39.7969 10.5811ZM41.7832 2.96973C41.3203 2.96973 40.9453 3.08984 40.6582 3.33008C40.377 3.56445 40.2363 3.88086 40.2363 4.2793C40.2363 4.63086 40.3477 4.94727 40.5703 5.22852C40.7988 5.50391 41.209 5.78809 41.8008 6.08105C42.375 5.81152 42.7764 5.53613 43.0049 5.25488C43.2334 4.97363 43.3477 4.64844 43.3477 4.2793C43.3477 3.875 43.2012 3.55566 42.9082 3.32129C42.6152 3.08691 42.2402 2.96973 41.7832 2.96973ZM61.8135 14H59.1328V8.26074C59.1328 7.55176 59.0127 7.02148 58.7725 6.66992C58.5381 6.3125 58.166 6.13379 57.6562 6.13379C56.9707 6.13379 56.4727 6.38574 56.1621 6.88965C55.8516 7.39355 55.6963 8.22266 55.6963 9.37695V14H53.0156V4.17383H55.0635L55.4238 5.43066H55.5732C55.8369 4.97949 56.2178 4.62793 56.7158 4.37598C57.2139 4.11816 57.7852 3.98926 58.4297 3.98926C59.9004 3.98926 60.8965 4.46973 61.418 5.43066H61.6553C61.9189 4.97363 62.3057 4.61914 62.8154 4.36719C63.3311 4.11523 63.9111 3.98926 64.5557 3.98926C65.6689 3.98926 66.5098 4.27637 67.0781 4.85059C67.6523 5.41895 67.9395 6.33301 67.9395 7.59277V14H65.25V8.26074C65.25 7.55176 65.1299 7.02148 64.8896 6.66992C64.6553 6.3125 64.2832 6.13379 63.7734 6.13379C63.1172 6.13379 62.625 6.36816 62.2969 6.83691C61.9746 7.30566 61.8135 8.0498 61.8135 9.06934V14ZM79.4971 14H76.8164V8.26074C76.8164 7.55176 76.6963 7.02148 76.4561 6.66992C76.2217 6.3125 75.8496 6.13379 75.3398 6.13379C74.6543 6.13379 74.1562 6.38574 73.8457 6.88965C73.5352 7.39355 73.3799 8.22266 73.3799 9.37695V14H70.6992V4.17383H72.7471L73.1074 5.43066H73.2568C73.5205 4.97949 73.9014 4.62793 74.3994 4.37598C74.8975 4.11816 75.4688 3.98926 76.1133 3.98926C77.584 3.98926 78.5801 4.46973 79.1016 5.43066H79.3389C79.6025 4.97363 79.9893 4.61914 80.499 4.36719C81.0146 4.11523 81.5947 3.98926 82.2393 3.98926C83.3525 3.98926 84.1934 4.27637 84.7617 4.85059C85.3359 5.41895 85.623 6.33301 85.623 7.59277V14H82.9336V8.26074C82.9336 7.55176 82.8135 7.02148 82.5732 6.66992C82.3389 6.3125 81.9668 6.13379 81.457 6.13379C80.8008 6.13379 80.3086 6.36816 79.9805 6.83691C79.6582 7.30566 79.4971 8.0498 79.4971 9.06934V14Z" fill="#0F0F0F"/>
</svg>
