<svg width="86" height="15" viewBox="0 0 86 15" fill="none" xmlns="http://www.w3.org/2000/svg">
<path d="M9.99304 11.3054H8.44617V13.9685H5.79187V11.3054H0.307495V9.41577L5.94128 1.1189H8.44617V9.19604H9.99304V11.3054ZM5.79187 9.19604V7.01636C5.79187 6.65308 5.80652 6.12573 5.83582 5.43433C5.86511 4.74292 5.88855 4.34155 5.90613 4.23022H5.83582C5.61902 4.71069 5.35828 5.17944 5.05359 5.63647L2.69812 9.19604H5.79187ZM19.9335 6.60327C19.9335 9.13452 19.4003 11.0242 18.3339 12.2722C17.2675 13.5203 15.6532 14.1443 13.4911 14.1443C12.7294 14.1443 12.1522 14.1033 11.7596 14.0212V11.8416C12.2518 11.9646 12.7675 12.0261 13.3065 12.0261C14.2147 12.0261 14.9618 11.8943 15.5477 11.6306C16.1337 11.3611 16.5819 10.9421 16.8925 10.3738C17.203 9.79956 17.3817 9.01147 17.4286 8.00952H17.3231C16.9833 8.5603 16.5907 8.94702 16.1454 9.16968C15.7001 9.39233 15.1434 9.50366 14.4755 9.50366C13.3563 9.50366 12.4745 9.14624 11.83 8.4314C11.1854 7.71069 10.8632 6.71167 10.8632 5.43433C10.8632 4.05737 11.2528 2.97046 12.0321 2.17358C12.8173 1.37085 13.8837 0.969482 15.2313 0.969482C16.1805 0.969482 17.0096 1.19214 17.7186 1.63745C18.4335 2.08276 18.9813 2.73022 19.3622 3.57983C19.743 4.42358 19.9335 5.4314 19.9335 6.60327ZM15.2841 3.14917C14.7216 3.14917 14.2821 3.34253 13.9657 3.72925C13.6493 4.11597 13.4911 4.67261 13.4911 5.39917C13.4911 6.02026 13.6346 6.51245 13.9218 6.87573C14.2089 7.23901 14.6454 7.42065 15.2313 7.42065C15.7821 7.42065 16.2538 7.24194 16.6464 6.88452C17.0389 6.52124 17.2352 6.10522 17.2352 5.63647C17.2352 4.93921 17.0507 4.35034 16.6815 3.86987C16.3182 3.3894 15.8524 3.14917 15.2841 3.14917ZM21.1024 10.2419V8.04468H25.8221V10.2419H21.1024ZM31.7635 5.75952C33.0057 5.75952 33.993 6.10815 34.7255 6.80542C35.4637 7.50269 35.8329 8.45776 35.8329 9.67065C35.8329 11.1062 35.3905 12.2107 34.5057 12.9841C33.621 13.7576 32.3553 14.1443 30.7089 14.1443C29.2792 14.1443 28.1249 13.9128 27.246 13.45V11.1033C27.7089 11.3494 28.2479 11.5515 28.8632 11.7097C29.4784 11.8621 30.0614 11.9382 30.6122 11.9382C32.2704 11.9382 33.0995 11.2585 33.0995 9.89917C33.0995 8.60425 32.2411 7.95679 30.5243 7.95679C30.2137 7.95679 29.871 7.98901 29.496 8.05347C29.121 8.11206 28.8163 8.17651 28.5819 8.24683L27.5009 7.66675L27.9843 1.1189H34.954V3.42163H30.3661L30.1288 5.94409L30.4364 5.88257C30.7938 5.80054 31.2362 5.75952 31.7635 5.75952ZM45.8524 3.99292C45.8524 4.79565 45.6093 5.47827 45.1229 6.04077C44.6366 6.60327 43.954 6.98999 43.0751 7.20093V7.25366C44.1122 7.38257 44.8973 7.69897 45.4305 8.20288C45.9637 8.70093 46.2303 9.37476 46.2303 10.2244C46.2303 11.4607 45.7821 12.4246 44.8856 13.116C43.9891 13.8015 42.7089 14.1443 41.0448 14.1443C39.6503 14.1443 38.4139 13.9128 37.3358 13.45V11.1384C37.8339 11.3904 38.3817 11.5955 38.9794 11.7537C39.577 11.9119 40.1688 11.991 40.7548 11.991C41.6512 11.991 42.3134 11.8386 42.7411 11.5339C43.1688 11.2292 43.3827 10.74 43.3827 10.0662C43.3827 9.46265 43.1366 9.03491 42.6444 8.78296C42.1522 8.53101 41.3671 8.40503 40.2889 8.40503H39.3134V6.32202H40.3065C41.3026 6.32202 42.0292 6.19312 42.4862 5.9353C42.9491 5.67163 43.1805 5.22339 43.1805 4.59058C43.1805 3.61792 42.5712 3.13159 41.3524 3.13159C40.9305 3.13159 40.4999 3.2019 40.0604 3.34253C39.6268 3.48315 39.1434 3.72632 38.6102 4.07202L37.3534 2.19995C38.5253 1.3562 39.9227 0.934326 41.5458 0.934326C42.8759 0.934326 43.9247 1.20386 44.6923 1.74292C45.4657 2.28198 45.8524 3.03198 45.8524 3.99292ZM61.8134 13.9685H59.1327V8.22925C59.1327 7.52026 59.0126 6.98999 58.7723 6.63843C58.538 6.28101 58.1659 6.10229 57.6561 6.10229C56.9706 6.10229 56.4725 6.35425 56.162 6.85815C55.8514 7.36206 55.6962 8.19116 55.6962 9.34546V13.9685H53.0155V4.14233H55.0634L55.4237 5.39917H55.5731C55.8368 4.948 56.2177 4.59644 56.7157 4.34448C57.2137 4.08667 57.785 3.95776 58.4296 3.95776C59.9003 3.95776 60.8964 4.43823 61.4178 5.39917H61.6552C61.9188 4.94214 62.3055 4.58765 62.8153 4.33569C63.3309 4.08374 63.911 3.95776 64.5555 3.95776C65.6688 3.95776 66.5096 4.24487 67.078 4.81909C67.6522 5.38745 67.9393 6.30151 67.9393 7.56128V13.9685H65.2499V8.22925C65.2499 7.52026 65.1298 6.98999 64.8895 6.63843C64.6552 6.28101 64.2831 6.10229 63.7733 6.10229C63.1171 6.10229 62.6249 6.33667 62.2968 6.80542C61.9745 7.27417 61.8134 8.01831 61.8134 9.03784V13.9685ZM79.4969 13.9685H76.8163V8.22925C76.8163 7.52026 76.6962 6.98999 76.4559 6.63843C76.2216 6.28101 75.8495 6.10229 75.3397 6.10229C74.6542 6.10229 74.1561 6.35425 73.8456 6.85815C73.535 7.36206 73.3798 8.19116 73.3798 9.34546V13.9685H70.6991V4.14233H72.7469L73.1073 5.39917H73.2567C73.5204 4.948 73.9012 4.59644 74.3993 4.34448C74.8973 4.08667 75.4686 3.95776 76.1132 3.95776C77.5839 3.95776 78.58 4.43823 79.1014 5.39917H79.3387C79.6024 4.94214 79.9891 4.58765 80.4989 4.33569C81.0145 4.08374 81.5946 3.95776 82.2391 3.95776C83.3524 3.95776 84.1932 4.24487 84.7616 4.81909C85.3358 5.38745 85.6229 6.30151 85.6229 7.56128V13.9685H82.9335V8.22925C82.9335 7.52026 82.8134 6.98999 82.5731 6.63843C82.3387 6.28101 81.9667 6.10229 81.4569 6.10229C80.8007 6.10229 80.3085 6.33667 79.9803 6.80542C79.6581 7.27417 79.4969 8.01831 79.4969 9.03784V13.9685Z" fill="#0F0F0F"/>
</svg>
