<svg width="86" height="15" viewBox="0 0 86 15" fill="none" xmlns="http://www.w3.org/2000/svg">
<path d="M9.99304 11.1952H8.44617V13.8583H5.79187V11.1952H0.307495V9.30554L5.94128 1.00867H8.44617V9.08582H9.99304V11.1952ZM5.79187 9.08582V6.90613C5.79187 6.54285 5.80652 6.0155 5.83582 5.3241C5.86511 4.63269 5.88855 4.23132 5.90613 4.12H5.83582C5.61902 4.60046 5.35828 5.06921 5.05359 5.52625L2.69812 9.08582H5.79187ZM19.9862 13.8583H11.0038V11.9686L14.2294 8.70789C15.1844 7.72937 15.8085 7.05261 16.1014 6.67761C16.3944 6.29675 16.6053 5.94519 16.7343 5.62292C16.8632 5.30066 16.9276 4.96667 16.9276 4.62097C16.9276 4.10535 16.7841 3.72156 16.4969 3.4696C16.2157 3.21765 15.8378 3.09167 15.3632 3.09167C14.8651 3.09167 14.3817 3.20593 13.913 3.43445C13.4442 3.66296 12.955 3.98816 12.4452 4.41003L10.9686 2.66101C11.6014 2.12195 12.1259 1.74109 12.5419 1.51843C12.9579 1.29578 13.412 1.12585 13.9042 1.00867C14.3964 0.88562 14.9471 0.824097 15.5565 0.824097C16.3593 0.824097 17.0682 0.970581 17.6835 1.26355C18.2987 1.55652 18.7762 1.96667 19.1161 2.49402C19.4559 3.02136 19.6259 3.62488 19.6259 4.30457C19.6259 4.89636 19.5204 5.453 19.3094 5.97449C19.1044 6.49011 18.7821 7.02039 18.3427 7.56531C17.9091 8.11023 17.1415 8.8866 16.0399 9.89441L14.3876 11.4501V11.5731H19.9862V13.8583ZM21.1024 10.1317V7.93445H25.8221V10.1317H21.1024ZM36.3602 11.1952H34.8134V13.8583H32.1591V11.1952H26.6747V9.30554L32.3085 1.00867H34.8134V9.08582H36.3602V11.1952ZM32.1591 9.08582V6.90613C32.1591 6.54285 32.1737 6.0155 32.203 5.3241C32.2323 4.63269 32.2557 4.23132 32.2733 4.12H32.203C31.9862 4.60046 31.7255 5.06921 31.4208 5.52625L29.0653 9.08582H32.1591ZM41.8007 0.841675C43.0311 0.841675 44.0214 1.12292 44.7714 1.68542C45.5272 2.24207 45.9052 2.995 45.9052 3.94421C45.9052 4.60046 45.7235 5.1864 45.3602 5.70203C44.9969 6.21179 44.411 6.66882 43.6024 7.07312C44.5634 7.58875 45.2518 8.12781 45.6678 8.69031C46.0897 9.24695 46.3007 9.85925 46.3007 10.5272C46.3007 11.5819 45.8876 12.4315 45.0614 13.076C44.2352 13.7147 43.1483 14.0341 41.8007 14.0341C40.3944 14.0341 39.2899 13.7352 38.4872 13.1376C37.6844 12.5399 37.2831 11.6932 37.2831 10.5975C37.2831 9.86511 37.4764 9.21472 37.8632 8.64636C38.2557 8.078 38.8827 7.57703 39.744 7.14343C39.0116 6.68054 38.4843 6.18542 38.162 5.65808C37.8397 5.13074 37.6786 4.55359 37.6786 3.92664C37.6786 3.00671 38.0594 2.26257 38.8212 1.69421C39.5829 1.12585 40.576 0.841675 41.8007 0.841675ZM39.7968 10.4393C39.7968 10.9432 39.9725 11.3358 40.3241 11.6171C40.6757 11.8983 41.1561 12.0389 41.7655 12.0389C42.4393 12.0389 42.9432 11.8954 43.2772 11.6083C43.6112 11.3153 43.7782 10.9315 43.7782 10.4569C43.7782 10.0643 43.6112 9.69812 43.2772 9.35828C42.9491 9.01257 42.413 8.64636 41.6688 8.25964C40.4208 8.83386 39.7968 9.56042 39.7968 10.4393ZM41.7831 2.828C41.3202 2.828 40.9452 2.94812 40.6581 3.18835C40.3768 3.42273 40.2362 3.73914 40.2362 4.13757C40.2362 4.48914 40.3475 4.80554 40.5702 5.08679C40.7987 5.36218 41.2089 5.64636 41.8007 5.93933C42.3749 5.6698 42.7762 5.39441 43.0048 5.11316C43.2333 4.83191 43.3475 4.50671 43.3475 4.13757C43.3475 3.73328 43.201 3.41394 42.9081 3.17957C42.6151 2.94519 42.2401 2.828 41.7831 2.828ZM61.8134 13.8583H59.1327V8.11902C59.1327 7.41003 59.0126 6.87976 58.7723 6.5282C58.538 6.17078 58.1659 5.99207 57.6561 5.99207C56.9706 5.99207 56.4725 6.24402 56.162 6.74792C55.8514 7.25183 55.6962 8.08093 55.6962 9.23523V13.8583H53.0155V4.0321H55.0634L55.4237 5.28894H55.5731C55.8368 4.83777 56.2177 4.48621 56.7157 4.23425C57.2137 3.97644 57.785 3.84753 58.4296 3.84753C59.9003 3.84753 60.8964 4.328 61.4178 5.28894H61.6552C61.9188 4.83191 62.3055 4.47742 62.8153 4.22546C63.3309 3.97351 63.911 3.84753 64.5555 3.84753C65.6688 3.84753 66.5096 4.13464 67.078 4.70886C67.6522 5.27722 67.9393 6.19128 67.9393 7.45105V13.8583H65.2499V8.11902C65.2499 7.41003 65.1298 6.87976 64.8895 6.5282C64.6552 6.17078 64.2831 5.99207 63.7733 5.99207C63.1171 5.99207 62.6249 6.22644 62.2968 6.69519C61.9745 7.16394 61.8134 7.90808 61.8134 8.92761V13.8583ZM79.4969 13.8583H76.8163V8.11902C76.8163 7.41003 76.6962 6.87976 76.4559 6.5282C76.2216 6.17078 75.8495 5.99207 75.3397 5.99207C74.6542 5.99207 74.1561 6.24402 73.8456 6.74792C73.535 7.25183 73.3798 8.08093 73.3798 9.23523V13.8583H70.6991V4.0321H72.7469L73.1073 5.28894H73.2567C73.5204 4.83777 73.9012 4.48621 74.3993 4.23425C74.8973 3.97644 75.4686 3.84753 76.1132 3.84753C77.5839 3.84753 78.58 4.328 79.1014 5.28894H79.3387C79.6024 4.83191 79.9891 4.47742 80.4989 4.22546C81.0145 3.97351 81.5946 3.84753 82.2391 3.84753C83.3524 3.84753 84.1932 4.13464 84.7616 4.70886C85.3358 5.27722 85.6229 6.19128 85.6229 7.45105V13.8583H82.9335V8.11902C82.9335 7.41003 82.8134 6.87976 82.5731 6.5282C82.3387 6.17078 81.9667 5.99207 81.4569 5.99207C80.8007 5.99207 80.3085 6.22644 79.9803 6.69519C79.6581 7.16394 79.4969 7.90808 79.4969 8.92761V13.8583Z" fill="#0F0F0F"/>
</svg>
